<svg width="97" height="97" viewBox="0 0 97 97" fill="none" xmlns="http://www.w3.org/2000/svg">
<g clip-path="url(#clip0_38_1068)">
<path d="M48.7261 36.8001C49.6629 36.8001 50.782 36.3531 52.0542 35.4807C53.3173 34.6145 54.6795 33.3653 56.0903 31.845C58.9111 28.8053 61.8776 24.7393 64.5845 20.6555C67.289 16.5753 69.724 12.4925 71.4839 9.42899C72.3448 7.93045 73.0437 6.67606 73.5327 5.78641L48.9614 18.8675L48.7261 18.9925L48.4907 18.8675L23.9185 5.78641C24.4075 6.67609 25.1063 7.93023 25.9673 9.42899C27.7272 12.4925 30.163 16.5752 32.8677 20.6555C35.5746 24.7393 38.541 28.8053 41.3618 31.845C42.7727 33.3653 44.1348 34.6146 45.3979 35.4807C46.6701 36.3531 47.7892 36.8001 48.7261 36.8001Z" stroke="white"/>
<path fill-rule="evenodd" clip-rule="evenodd" d="M48.7262 64.826L13.3384 72.7304C13.3384 41.9406 16.0481 22.9463 22.6862 4.56253C22.6862 4.56253 34.4948 21.7555 48.7262 37.3001C62.9576 21.7555 74.7662 4.56253 74.7662 4.56253C81.4042 22.9463 84.114 41.9406 84.114 72.7304L48.7262 64.826Z" fill="white"/>
<path d="M48.5669 91.9046H48.8862C58.5461 91.8805 67.2659 89.6834 73.5532 86.1731C79.8573 82.6535 83.6137 77.8811 83.6138 72.7298C83.6138 67.5784 79.8574 62.8051 73.5532 59.2854C67.2659 55.7752 58.546 53.579 48.8862 53.555H48.5669C38.9069 53.579 30.1864 55.7751 23.8989 59.2854C17.5947 62.8051 13.8384 67.5784 13.8384 72.7298C13.8384 77.881 17.5949 82.6535 23.8989 86.1731C30.1864 89.6834 38.9069 91.8806 48.5669 91.9046Z" stroke="white"/>
</g>
<defs>
<clipPath id="clip0_38_1068">
<rect width="97" height="97" fill="white"/>
</clipPath>
</defs>
</svg>
